<svg xmlns="http://www.w3.org/2000/svg" width="42.824" height="46.319" viewBox="0 0 42.824 46.319">
  <g id="Layer_1" data-name="Layer 1" transform="translate(0 0)">
    <path id="Path_3673" data-name="Path 3673" d="M0,12.117V38.237a10.111,10.111,0,0,0,15.166,8.754l22.623-13.06a10.111,10.111,0,0,0,0-17.475L15.166,3.4A10.111,10.111,0,0,0,0,12.117Z" transform="translate(0 -2.026)" fill="#ff2424"/>
    <path id="Path_3674" data-name="Path 3674" d="M39.051,16.445,16.462,3.394A9.934,9.934,0,0,0,8.23,2.551a10.709,10.709,0,0,0,1.441,5.14L23.514,31.712a10.38,10.38,0,0,0,10.507,5.123l5.055-2.907A9.984,9.984,0,0,0,42.4,30.836l.607-1.028a10.111,10.111,0,0,0-3.96-13.363Z" transform="translate(-1.296 -2.023)" fill="#db1d1d"/>
  </g>
</svg>
