<svg id="Layer_1" data-name="Layer 1" xmlns="http://www.w3.org/2000/svg" width="149.928" height="23.859" viewBox="0 0 149.928 23.859">
  <path id="Path_3664" data-name="Path 3664" d="M72.351,29.293a.356.356,0,0,1-.356.247h-2.93a.381.381,0,0,1-.356-.247L63.9,17.015c-.084-.218,0-.356.218-.356h2.8a.306.306,0,0,1,.3.193l3.324,8.979,3.294-8.95a.322.322,0,0,1,.3-.222h2.8c.247,0,.326.138.247.356Z" transform="translate(-37.131 -9.685)" fill="#330101"/>
  <path id="Path_3665" data-name="Path 3665" d="M104.623,15.87a6.4,6.4,0,0,1,6.731,6.752,6.712,6.712,0,1,1-13.424,0A6.378,6.378,0,0,1,104.623,15.87Zm0,10.381a3.422,3.422,0,0,0,3.6-3.625,3.422,3.422,0,0,0-3.6-3.625,3.374,3.374,0,0,0-3.571,3.625A3.387,3.387,0,0,0,104.623,26.251Z" transform="translate(-56.937 -9.226)" fill="#330101"/>
  <path id="Path_3666" data-name="Path 3666" d="M134,13.428c0-4.01,2.583-6.7,6.48-6.7a4.755,4.755,0,0,1,3.872,1.729V.275A.255.255,0,0,1,144.6,0h2.583a.26.26,0,0,1,.276.276v19.3a.251.251,0,0,1-.276.276h-1.838a.356.356,0,0,1-.331-.247l-.419-1.511a4.818,4.818,0,0,1-4.119,2.059C136.579,20.155,134,17.409,134,13.428ZM140.672,9.8a3.4,3.4,0,0,0-3.566,3.625,3.412,3.412,0,0,0,3.566,3.625,3.468,3.468,0,0,0,3.654-3.625A3.441,3.441,0,0,0,140.668,9.8Z" transform="translate(-77.908 0.001)" fill="#330101"/>
  <path id="Path_3667" data-name="Path 3667" d="M178.961,26.577a4.366,4.366,0,0,0,2.93-1.017c.193-.138.356-.138.465-.025l1.62,1.674a.293.293,0,0,1,.029.419A6.824,6.824,0,0,1,178.79,29.5a6.392,6.392,0,0,1-6.84-6.7,6.334,6.334,0,0,1,6.672-6.7c3.981,0,6.7,2.415,6.672,7.66a.243.243,0,0,1-.272.276h-9.741A3.531,3.531,0,0,0,178.961,26.577Zm3.077-4.889a3.509,3.509,0,0,0-6.811,0Z" transform="translate(-99.972 -9.36)" fill="#330101"/>
  <path id="Path_3668" data-name="Path 3668" d="M218.811,16.563c.054-.163.138-.272.306-.272h2.093a.26.26,0,0,1,.276.272V28.92a.28.28,0,0,1-.276.276H219.1c-.163,0-.247-.113-.3-.276l-.385-1.457A4.8,4.8,0,0,1,214.29,29.5c-3.872.025-6.48-2.746-6.48-6.727s2.608-6.7,6.48-6.7a4.835,4.835,0,0,1,4.119,1.976ZM214.474,26.4a3.491,3.491,0,0,0,3.679-3.625,3.469,3.469,0,0,0-3.679-3.6,3.367,3.367,0,0,0-3.571,3.6A3.416,3.416,0,0,0,214.474,26.4Z" transform="translate(-120.822 -9.342)" fill="#330101"/>
  <path id="Path_3669" data-name="Path 3669" d="M250.236,17.986a.247.247,0,0,1,.276.218l.163,2.662a4.272,4.272,0,0,1,4.148-3.156,3.94,3.94,0,0,1,4.186,3.4,4.556,4.556,0,0,1,4.4-3.4c2.662,0,4.45,1.649,4.45,5.442V29.9c0,.163-.054.247-.193.247h-.686a.218.218,0,0,1-.247-.247V23.118c0-2.93-1.293-4.282-3.433-4.282-2.39,0-3.981,2.252-4.035,5.383V29.9c0,.163-.059.247-.222.247h-.687c-.138,0-.218-.084-.218-.247V23.118c0-2.93-1.293-4.282-3.432-4.282-2.306,0-3.9,2.252-4.039,5.107l.029,5.961a.218.218,0,0,1-.247.247h-.661a.218.218,0,0,1-.247-.247V18.25a.218.218,0,0,1,.247-.247Z" transform="translate(-145.08 -10.296)" fill="#330101"/>
  <path id="Path_3670" data-name="Path 3670" d="M312.872,18.2c.025-.163.109-.247.247-.247h.5c.163,0,.218.084.218.247V29.925c0,.167-.08.222-.247.222h-.473c-.163,0-.247-.084-.247-.222l-.163-2.662a5.664,5.664,0,0,1-5.366,3.16,5.974,5.974,0,0,1-6.233-6.371c0-3.792,2.466-6.342,6.233-6.342a5.652,5.652,0,0,1,5.383,3.156ZM307.406,29.3a5.039,5.039,0,0,0,5.3-5.245,5,5,0,0,0-5.3-5.216,4.892,4.892,0,0,0-5.186,5.216A4.946,4.946,0,0,0,307.406,29.3Z" transform="translate(-175.067 -10.296)" fill="#330101"/>
  <path id="Path_3671" data-name="Path 3671" d="M341.643,4.526a1.051,1.051,0,0,1,1.126,1.126,1.072,1.072,0,0,1-1.126,1.164,1.1,1.1,0,0,1-1.155-1.151,1.076,1.076,0,0,1,1.155-1.139Zm.548,17.736c0,.138-.054.222-.222.222h-.686a.205.205,0,0,1-.218-.222V10.541a.2.2,0,0,1,.218-.218h.674c.167,0,.222.08.222.218Z" transform="translate(-197.96 -2.629)" fill="#330101"/>
  <path id="Path_3672" data-name="Path 3672" d="M356.592,19.671a.193.193,0,0,1-.222.222H355.7a.2.2,0,0,1-.218-.222V.286A.2.2,0,0,1,355.7.068h.687c.163,0,.222.08.222.218Z" transform="translate(-206.676 -0.038)" fill="#330101"/>
  <path id="Path_3673" data-name="Path 3673" d="M0,7.048V20.024a5.023,5.023,0,0,0,7.535,4.349l11.239-6.488a5.023,5.023,0,0,0,0-8.682L7.535,2.715A5.023,5.023,0,0,0,0,7.048Z" transform="translate(0 -1.187)" fill="#ff2424"/>
  <path id="Path_3674" data-name="Path 3674" d="M23.542,9.188,12.32,2.7a4.935,4.935,0,0,0-4.09-.419,5.32,5.32,0,0,0,.716,2.553l6.878,11.934a5.157,5.157,0,0,0,5.22,2.545l2.512-1.444a4.96,4.96,0,0,0,1.653-1.536l.3-.511a5.023,5.023,0,0,0-1.967-6.639Z" transform="translate(-4.785 -1.176)" fill="#db1d1d"/>
</svg>
